<svg width="20" height="16" viewBox="0 0 20 16" fill="none" xmlns="http://www.w3.org/2000/svg">
<path fill-rule="evenodd" clip-rule="evenodd" d="M17 0H3C1.34315 0 0 1.34315 0 3V13C0 14.6569 1.34315 16 3 16H17C18.6569 16 20 14.6569 20 13V3C20 1.34315 18.6569 0 17 0ZM2 3C2 2.44772 2.44772 2 3 2H17C17.5523 2 18 2.44772 18 3V13C18 13.5523 17.5523 14 17 14H3C2.44772 14 2 13.5523 2 13V3Z" fill="#007AFF"/>
<path d="M0.385986 2.78934L8.1581 8.83432C9.24144 9.67691 10.7584 9.67691 11.8417 8.83432L19.6139 2.78934L18.386 1.21063L10.6139 7.25561C10.2528 7.53648 9.7471 7.53648 9.38599 7.25561L1.61387 1.21063L0.385986 2.78934Z" fill="#007AFF"/>
</svg>
