<svg width="20" height="21" viewBox="0 0 20 21" fill="none" xmlns="http://www.w3.org/2000/svg">
<path d="M19.9999 10.447C19.9999 9.77439 19.9403 9.13582 19.8382 8.51428H10.217V12.3542H15.7258C15.4789 13.6143 14.7551 14.6786 13.6823 15.4023V17.9566H16.9689C18.8931 16.1771 19.9999 13.5547 19.9999 10.447Z" fill="#4285F4"/>
<path d="M10.2172 20.4342C12.9758 20.4342 15.2831 19.5147 16.969 17.9566L13.6825 15.4023C12.7629 16.0153 11.5965 16.3899 10.2172 16.3899C7.5522 16.3899 5.29592 14.5934 4.48706 12.1669H1.09839V14.7978C2.7757 18.1354 6.22397 20.4342 10.2172 20.4342Z" fill="#34A853"/>
<path d="M4.48702 12.1669C4.27416 11.5538 4.16347 10.8982 4.16347 10.2171C4.16347 9.53595 4.28267 8.88035 4.48702 8.26732V5.63641H1.09834C0.40017 7.01572 0 8.56532 0 10.2171C0 11.8689 0.40017 13.4184 1.09834 14.7978L4.48702 12.1669Z" fill="#FBBC05"/>
<path d="M10.2172 4.04427C11.7242 4.04427 13.0694 4.56364 14.1337 5.57684L17.0456 2.66496C15.2831 1.0132 12.9758 0 10.2172 0C6.22397 0 2.7757 2.29885 1.09839 5.63644L4.48706 8.26735C5.29592 5.84078 7.5522 4.04427 10.2172 4.04427Z" fill="#EA4335"/>
</svg>
